<svg xmlns="http://www.w3.org/2000/svg" viewBox="0 0 100 100">
  <path d="M50 20 C50 20 22 14 14 20 L14 82 C22 76 50 82 50 82Z" fill="#4ECDC4"/>
  <path d="M50 20 C50 20 78 14 86 20 L86 82 C78 76 50 82 50 82Z" fill="#FF6B6B"/>
  <rect x="47" y="18" width="6" height="66" fill="#2C3E50"/>
  <line x1="22" y1="36" x2="44" y2="34" stroke="white" stroke-width="2.5" stroke-linecap="round"/>
  <line x1="22" y1="45" x2="44" y2="43" stroke="white" stroke-width="2.5" stroke-linecap="round"/>
  <line x1="22" y1="54" x2="44" y2="52" stroke="white" stroke-width="2.5" stroke-linecap="round"/>
  <line x1="56" y1="34" x2="78" y2="36" stroke="white" stroke-width="2.5" stroke-linecap="round"/>
  <line x1="56" y1="43" x2="78" y2="45" stroke="white" stroke-width="2.5" stroke-linecap="round"/>
  <line x1="56" y1="52" x2="78" y2="54" stroke="white" stroke-width="2.5" stroke-linecap="round"/>
</svg>
