<svg xmlns="http://www.w3.org/2000/svg" viewBox="0 0 100 100">
  <ellipse cx="30" cy="35" rx="18" ry="11" fill="#AED6F1" opacity="0.85" transform="rotate(-30 30 35)"/>
  <ellipse cx="70" cy="35" rx="18" ry="11" fill="#AED6F1" opacity="0.85" transform="rotate(30 70 35)"/>
  <ellipse cx="50" cy="62" rx="18" ry="24" fill="#FFD700"/>
  <rect x="32" y="53" width="36" height="7" rx="3" fill="#2C3E50"/>
  <rect x="32" y="65" width="36" height="7" rx="3" fill="#2C3E50"/>
  <circle cx="50" cy="33" r="15" fill="#FFD700"/>
  <circle cx="44" cy="30" r="4" fill="#2C3E50"/>
  <circle cx="56" cy="30" r="4" fill="#2C3E50"/>
  <circle cx="45" cy="29" r="1.5" fill="white"/>
  <circle cx="57" cy="29" r="1.5" fill="white"/>
  <path d="M43 38 Q50 44 57 38" fill="none" stroke="#2C3E50" stroke-width="2" stroke-linecap="round"/>
  <line x1="44" y1="19" x2="35" y2="9" stroke="#2C3E50" stroke-width="2" stroke-linecap="round"/>
  <circle cx="34" cy="8" r="3" fill="#2C3E50"/>
  <line x1="56" y1="19" x2="65" y2="9" stroke="#2C3E50" stroke-width="2" stroke-linecap="round"/>
  <circle cx="66" cy="8" r="3" fill="#2C3E50"/>
</svg>
