<svg xmlns="http://www.w3.org/2000/svg" viewBox="0 0 100 100">
  <path d="M5 76 Q5 20 50 20 Q95 20 95 76" fill="none" stroke="#FF0000" stroke-width="6" stroke-linecap="round"/>
  <path d="M12 76 Q12 28 50 28 Q88 28 88 76" fill="none" stroke="#FF8C00" stroke-width="6" stroke-linecap="round"/>
  <path d="M19 76 Q19 36 50 36 Q81 36 81 76" fill="none" stroke="#FFD700" stroke-width="6" stroke-linecap="round"/>
  <path d="M26 76 Q26 44 50 44 Q74 44 74 76" fill="none" stroke="#2ECC71" stroke-width="6" stroke-linecap="round"/>
  <path d="M33 76 Q33 52 50 52 Q67 52 67 76" fill="none" stroke="#3498DB" stroke-width="6" stroke-linecap="round"/>
  <path d="M40 76 Q40 60 50 60 Q60 60 60 76" fill="none" stroke="#9B59B6" stroke-width="6" stroke-linecap="round"/>
  <ellipse cx="18" cy="76" rx="14" ry="8" fill="white"/>
  <ellipse cx="82" cy="76" rx="14" ry="8" fill="white"/>
</svg>
