<svg xmlns="http://www.w3.org/2000/svg" viewBox="0 0 100 100">
  <ellipse cx="25" cy="38" rx="17" ry="21" fill="#2ECC71"/>
  <ellipse cx="19" cy="28" rx="6" ry="8" fill="#58D68D" opacity="0.6"/>
  <path d="M25 59 Q22 66 27 72 Q29 76 25 82" stroke="#1A8C4E" stroke-width="1.5" fill="none" stroke-linecap="round"/>
  <path d="M21 59 Q25 63 29 59" fill="#1A8C4E"/>
  <ellipse cx="75" cy="35" rx="17" ry="21" fill="#3498DB"/>
  <ellipse cx="69" cy="25" rx="6" ry="8" fill="#5DADE2" opacity="0.6"/>
  <path d="M75 56 Q72 63 77 69 Q79 73 75 79" stroke="#1A6FA8" stroke-width="1.5" fill="none" stroke-linecap="round"/>
  <path d="M71 56 Q75 60 79 56" fill="#1A6FA8"/>
  <ellipse cx="50" cy="32" rx="19" ry="23" fill="#E74C3C"/>
  <ellipse cx="43" cy="21" rx="7" ry="9" fill="#F1948A" opacity="0.6"/>
  <path d="M50 55 Q47 63 52 70 Q54 75 50 82" stroke="#A93226" stroke-width="1.5" fill="none" stroke-linecap="round"/>
  <path d="M46 55 Q50 59 54 55" fill="#A93226"/>
</svg>
